<svg width="150" height="60" viewBox="0 0 150 60" fill="none" xmlns="http://www.w3.org/2000/svg">
  <path d="M46.8676 18.2988H53.0655V41.7012H46.8676V18.2988Z" fill="#566779"/>
  <path d="M60.2148 24.5742H54.2852V41.7012H60.2148V24.5742Z" fill="#566779"/>
  <path d="M57.2539 22.4062C59.1504 22.4062 60.6328 20.9238 60.6328 19.0273C60.6328 17.1309 59.1504 15.6484 57.2539 15.6484C55.3574 15.6484 53.875 17.1309 53.875 19.0273C53.875 20.9238 55.3574 22.4062 57.2539 22.4062Z" fill="#566779"/>
  <path d="M76.2109 24.5742H70.2812V41.7012H76.2109V24.5742Z" fill="#566779"/>
  <path d="M73.25 22.4062C75.1465 22.4062 76.6289 20.9238 76.6289 19.0273C76.6289 17.1309 75.1465 15.6484 73.25 15.6484C71.3535 15.6484 69.8711 17.1309 69.8711 19.0273C69.8711 20.9238 71.3535 22.4062 73.25 22.4062Z" fill="#566779"/>
  <path d="M37.5 30.5039C37.5 27.0215 34.6582 24.1797 31.1758 24.1797C27.6934 24.1797 24.8516 27.0215 24.8516 30.5039V41.7012H30.7812V30.5039C30.7812 30.1094 31.0977 29.793 31.4922 29.793C31.8867 29.793 32.2031 30.1094 32.2031 30.5039V41.7012H37.5V30.5039Z" fill="#566779"/>
  <path d="M92.1973 24.1797C88.7148 24.1797 85.873 27.0215 85.873 30.5039V41.7012H91.8027V30.5039C91.8027 30.1094 92.1191 29.793 92.5137 29.793C92.9082 29.793 93.2246 30.1094 93.2246 30.5039V41.7012H98.5215V30.5039C98.5215 27.0215 95.6797 24.1797 92.1973 24.1797Z" fill="#566779"/>
  <path d="M109.277 24.1797C105.795 24.1797 102.953 27.0215 102.953 30.5039V35.7773C102.953 39.2598 105.795 42.1016 109.277 42.1016C112.76 42.1016 115.602 39.2598 115.602 35.7773V30.5039C115.602 27.0215 112.76 24.1797 109.277 24.1797ZM109.695 35.7773C109.695 36.1719 109.379 36.4883 108.984 36.4883C108.59 36.4883 108.273 36.1719 108.273 35.7773V30.5039C108.273 30.1094 108.59 29.793 108.984 29.793C109.379 29.793 109.695 30.1094 109.695 30.5039V35.7773Z" fill="#566779"/>
</svg>